<?xml version="1.0" standalone="no"?><!DOCTYPE svg PUBLIC "-//W3C//DTD SVG 1.1//EN" "http://www.w3.org/Graphics/SVG/1.1/DTD/svg11.dtd"><svg t="1758273795402" class="icon" viewBox="0 0 1024 1024" version="1.1" xmlns="http://www.w3.org/2000/svg" p-id="84035" xmlns:xlink="http://www.w3.org/1999/xlink" width="200" height="200"><path d="M512 256a196.906667 196.906667 0 0 1 196.906667 196.906667v334.805333c0 36.266667-29.354667 65.621333-65.621334 65.621333h-426.666666A131.328 131.328 0 0 1 85.333333 722.048V321.621333C85.333333 285.354667 114.730667 256 150.954667 256H512z m412.245333 30.634667c9.216 9.173333 14.421333 21.632 14.421334 34.602666v458.922667a49.066667 49.066667 0 0 1-49.237334 48.938667c-13.056 0-25.6-5.12-34.816-14.336l-112.853333-112.213334V398.848l112.853333-112.213333a49.450667 49.450667 0 0 1 69.632 0zM369.877333 431.616a28.501333 28.501333 0 0 0-28.544 28.501333v189.098667a28.544 28.544 0 0 0 44.885334 23.381333l135.04-94.549333a28.586667 28.586667 0 0 0 0-46.762667l-135.04-94.549333a28.544 28.544 0 0 0-16.341334-5.12z" fill="#858585" p-id="84036"></path></svg>