<?xml version="1.0" standalone="no"?><!DOCTYPE svg PUBLIC "-//W3C//DTD SVG 1.1//EN" "http://www.w3.org/Graphics/SVG/1.1/DTD/svg11.dtd"><svg t="1758183870243" class="icon" viewBox="0 0 1024 1024" version="1.1" xmlns="http://www.w3.org/2000/svg" p-id="55384" xmlns:xlink="http://www.w3.org/1999/xlink" width="200" height="200"><path d="M835.8 928.6h151.7v60.7H835.8z" fill="#1076BB" p-id="55385"></path><path d="M987.5 261.1v667.5H835.8V261.1h75.9zM949.6 215.5l37.9 45.6H835.8l37.9-45.6 38-45.5zM911.3 109.3V170H456.9v-60.7zM380.6 928.6h455.1v60.7H380.6z" fill="#88D6F7" p-id="55386"></path><path d="M987.5 994.7H835.8c-3.1 0-5.5-2.4-5.5-5.5s2.4-5.5 5.5-5.5H982V261.1c0-3.1 2.4-5.5 5.5-5.5s5.5 2.4 5.5 5.5v728.1c0 3.1-2.4 5.5-5.5 5.5z" fill="#1076BB" p-id="55387"></path><path d="M987.5 266.6c-1.5 0-3.2-0.7-4.2-2l-71.6-86-71.6 86c-2 2.3-5.4 2.6-7.7 0.7-2.3-2-2.6-5.4-0.7-7.7l75.8-91c1.1-1.2 2.6-2 4.2-2s3.2 0.8 4.2 2l75.8 91c2 2.3 1.7 5.8-0.7 7.7-1 0.8-2.3 1.3-3.5 1.3z" fill="#1076BB" p-id="55388"></path><path d="M911.3 175.5H456.9c-3.1 0-5.5-2.4-5.5-5.5v-60.7c0-3.1 2.4-5.5 5.5-5.5h454.5c3.1 0 5.5 2.4 5.5 5.5V170c-0.1 3.1-2.5 5.5-5.6 5.5z m-448.9-11h443.4v-49.7H462.4v49.7zM835.8 994.7H380.6c-3.1 0-5.5-2.4-5.5-5.5V261.1c0-3.1 2.4-5.5 5.5-5.5s5.5 2.4 5.5 5.5v722.6h444.2V266.6H533.1c-3.1 0-5.5-2.4-5.5-5.5s2.4-5.5 5.5-5.5h302.7c3.1 0 5.5 2.4 5.5 5.5v728.1c0 3.1-2.4 5.5-5.5 5.5z" fill="#1076BB" p-id="55389"></path><path d="M533.1 266.6H380.6c-2.1 0-4.1-1.2-5-3.2-0.9-2-0.6-4.2 0.8-5.8l76.3-91c2-2.3 5.4-2.6 7.7-0.7 2.3 2 2.6 5.4 0.7 7.7l-68.7 82h140.8c3.1 0 5.5 2.4 5.5 5.5s-2.5 5.5-5.6 5.5zM987.5 934.1H380.6c-3.1 0-5.5-2.4-5.5-5.5s2.4-5.5 5.5-5.5h606.9c3.1 0 5.5 2.4 5.5 5.5s-2.4 5.5-5.5 5.5z" fill="#1076BB" p-id="55390"></path><path d="M866.1 837.5h91v30.3h-91z" fill="#FFFFFF" p-id="55391"></path><path d="M957.2 873.4h-91c-3.1 0-5.5-2.4-5.5-5.5v-30.3c0-3.1 2.4-5.5 5.5-5.5h91c3.1 0 5.5 2.4 5.5 5.5v30.3c0 3-2.4 5.5-5.5 5.5z m-85.6-11.1h80V843h-80v19.3z" fill="#1076BB" p-id="55392"></path><path d="M758.2 145.1H606.6c-3.1 0-5.5-2.4-5.5-5.5s2.4-5.5 5.5-5.5h151.7c3.1 0 5.5 2.4 5.5 5.5s-2.5 5.5-5.6 5.5z" fill="#1076BB" p-id="55393"></path><path d="M501.1 444.5h212.4v180.7H501.1z" fill="#88D6F7" p-id="55394"></path><path d="M713.5 630.7H501.1c-3.1 0-5.5-2.4-5.5-5.5V444.5c0-3.1 2.4-5.5 5.5-5.5h212.4c3.1 0 5.5 2.4 5.5 5.5v180.7c0 3-2.4 5.5-5.5 5.5z m-206.9-11.1H708V450H506.6v169.6z" fill="#1076BB" p-id="55395"></path><path d="M641.9 485l-85.2 85.2-1-1c-15.8-15.8-9.4-47.5 14.2-71.1 23.6-23.6 55.3-29.9 71.1-14.2 0.4 0.5 0.7 0.8 0.9 1.1z" fill="#FFFFFF" p-id="55396"></path><path d="M556.7 575.8c-1.4 0-2.9-0.6-3.9-1.7l-1-1c-18.2-18.2-11.9-52.8 14.2-78.9 12.1-12.1 26.8-20.5 41.3-23.4 15.2-3.1 28.5 0.2 37.6 9.1l1 1c2.2 2.2 2.2 5.6 0 7.8s-5.6 2.2-7.8 0l-1-1c-13.6-13.4-42-7.2-63.3 14.2-21.4 21.4-27.8 49.8-14.2 63.3l1 1c2.2 2.2 2.2 5.6 0 7.8-1 1.2-2.4 1.8-3.9 1.8z" fill="#1076BB" p-id="55397"></path><path d="M556.7 575.8c-1.4 0-2.9-0.6-3.9-1.7-2.2-2.2-2.2-5.6 0-7.8l85.2-85.2c2.2-2.2 5.6-2.2 7.8 0s2.2 5.6 0 7.8l-85.2 85.2c-1 1.1-2.4 1.7-3.9 1.7z" fill="#1076BB" p-id="55398"></path><path d="M657.9 500.9l-85.3 85.2 1 1c15.7 15.7 47.5 9.4 71.1-14.2 23.6-23.6 29.9-55.3 14.2-71.1-0.3-0.3-0.6-0.7-1-0.9z" fill="#FFFFFF" p-id="55399"></path><path d="M596.4 601.2c-10.7 0-20-3.5-26.7-10.3l-1-1c-2.2-2.2-2.2-5.6 0-7.8s5.6-2.2 7.8 0l1 1c6.3 6.3 16.1 8.4 27.6 6.1 12.3-2.4 25-9.7 35.7-20.3 21.3-21.3 27.7-49.7 14.2-63.3l-1-1c-2.2-2.2-2.1-5.6 0-7.8 2.2-2.2 5.6-2.1 7.8 0l1 1c8.9 8.9 12.1 22.4 9.1 37.6-2.9 14.4-11.1 29.1-23.4 41.3-12.1 12.1-26.9 20.4-41.3 23.4-3.7 0.8-7.4 1.1-10.8 1.1z" fill="#1076BB" p-id="55400"></path><path d="M572.6 591.6c-1.4 0-2.9-0.6-3.9-1.7-2.2-2.2-2.1-5.6 0-7.8l85.3-85.2c2.2-2.2 5.6-2.1 7.8 0 2.2 2.2 2.1 5.6 0 7.8L576.6 590c-1.1 1.1-2.6 1.6-4 1.6z" fill="#1076BB" p-id="55401"></path><path d="M562.7 655.5h91v30.3h-91z" fill="#1076BB" p-id="55402"></path><path d="M653.7 691.3h-91c-3.1 0-5.5-2.4-5.5-5.5v-30.3c0-3.1 2.4-5.5 5.5-5.5h91c3.1 0 5.5 2.4 5.5 5.5v30.3c0 3-2.4 5.5-5.5 5.5z m-85.5-11h80V661h-80v19.3z" fill="#1076BB" p-id="55403"></path><path d="M335.2 557.5c-1.8 0-3.5-0.9-4.6-2.4-28.8-43.3-15.4-70 1.5-103.7l1.7-3.2c18.5-37.1-13.2-81.2-13.6-81.7-1.8-2.4-1.2-6 1.2-7.7 2.4-1.8 6-1.2 7.7 1.2 0.3 0.6 9.1 12.6 15.3 29.9 8.4 23.4 8.2 45.3-0.9 63.3l-1.7 3.3c-16.5 32.8-27.4 54.7-2.2 92.6 1.7 2.5 1 6-1.5 7.6-0.8 0.4-1.8 0.8-2.9 0.8zM268.7 606.4c-1.8 0-3.5-0.9-4.6-2.4-28.8-43.3-15.4-70 1.5-103.7l1.7-3.2c18.5-37.1-13.2-81.2-13.6-81.7-1.8-2.4-1.2-6 1.2-7.7 2.4-1.8 6-1.3 7.7 1.2 0.3 0.6 9.1 12.6 15.3 29.9 8.4 23.4 8.2 45.3-0.9 63.3l-1.7 3.3c-16.5 32.8-27.4 54.7-2.2 92.6 1.7 2.5 1 6-1.5 7.6-0.8 0.5-1.8 0.8-2.9 0.8z" fill="#1076BB" p-id="55404"></path><path d="M529.7 957.6H68.2c-17.4 0-31.4-14.1-31.4-31.4h524.4c-0.1 17.3-14.1 31.4-31.5 31.4z" fill="#FFFFFF" p-id="55405"></path><path d="M529.7 963.1H68.2c-20.4 0-36.9-16.5-36.9-36.9 0-3.1 2.4-5.5 5.5-5.5h524.4c1.4 0 2.9 0.6 3.9 1.7 1 1 1.7 2.4 1.7 4-0.1 20.2-16.8 36.7-37.1 36.7zM42.9 931.7c2.5 11.7 12.9 20.4 25.4 20.4h461.5c12.3 0 22.8-8.7 25.4-20.4H42.9z" fill="#1076BB" p-id="55406"></path><path d="M220.3 957.6h157.3V989H220.3z" fill="#1076BB" p-id="55407"></path><path d="M377.6 994.5H220.3c-3.1 0-5.5-2.4-5.5-5.5v-31.4c0-3.1 2.4-5.5 5.5-5.5h157.3c3.1 0 5.5 2.4 5.5 5.5V989c0 3.1-2.4 5.5-5.5 5.5z m-151.8-11h146.3v-20.4H225.8v20.4z" fill="#1076BB" p-id="55408"></path><path d="M523.8 844.2h-50.7c-3.1 0-5.5-2.4-5.5-5.5V681.4c0-3.1 2.4-5.5 5.5-5.5h50.7c46.4 0 84.2 37.8 84.2 84.2-0.1 46.4-37.9 84.1-84.2 84.1z m-45.2-11.1h45.2c40.2 0 73.1-32.7 73.2-73.1 0-40.3-32.8-73.2-73.2-73.2h-45.2v146.3z" fill="#1076BB" p-id="55409"></path><path d="M523.8 812.7h-50.7c-3.1 0-5.5-2.4-5.5-5.5v-94.4c0-3.1 2.4-5.5 5.5-5.5h50.7c29.1 0 52.7 23.6 52.7 52.7s-23.6 52.7-52.7 52.7z m-45.2-11h45.2c22.9 0 41.7-18.7 41.7-41.7s-18.7-41.7-41.7-41.7h-45.2v83.4z" fill="#1076BB" p-id="55410"></path><path d="M214 923c-48.7 0-88.2-39.5-88.2-88.2v-94c55.6 12 115.6 35.9 143.3 45.5 102.9 35.3 171.2 16.2 202.8-11.6V835c0 48.7-39.5 88.2-88.2 88.2H214v-0.2z" fill="#88D6F7" p-id="55411"></path><path d="M125.9 649.8H472v124.8c-31.6 27.8-99.9 46.8-202.8 11.6-27.8-9.6-87.7-33.5-143.3-45.5v-90.9z" fill="#FFFFFF" p-id="55412"></path><path d="M383.9 928.6H214.2c-51.7 0-93.7-42-93.7-93.7V649.8c0-3.1 2.4-5.5 5.5-5.5h346.1c3.1 0 5.5 2.4 5.5 5.5v185.1c0 51.7-42 93.7-93.7 93.7zM131.5 655.3v179.6c0 45.6 37 82.7 82.7 82.7h169.7c45.6 0 82.7-37 82.7-82.7V655.3H131.5z" fill="#1076BB" p-id="55413"></path><path d="M372.9 811c-32.3 0-67.7-6.5-105.5-19.5-5.5-1.9-12.2-4.3-20-7.2-31.3-11.4-78.5-28.7-122.7-38.1-3-0.7-4.8-3.5-4.2-6.5 0.7-3 3.5-4.8 6.5-4.2 45 9.7 92.6 27.1 124.2 38.6 7.7 2.8 14.3 5.2 19.7 7.1 46.3 15.9 88.6 21.8 125.8 17.6 29.3-3.3 54.8-13.3 71.6-28.1 2.3-2 5.7-1.8 7.8 0.6 2 2.3 1.8 5.7-0.6 7.8-18.5 16.3-46.1 27.2-77.7 30.8-7.9 0.6-16.3 1.1-24.9 1.1z" fill="#1076BB" p-id="55414"></path></svg>