<?xml version="1.0" standalone="no"?><!DOCTYPE svg PUBLIC "-//W3C//DTD SVG 1.1//EN" "http://www.w3.org/Graphics/SVG/1.1/DTD/svg11.dtd"><svg t="1759230600323" class="icon" viewBox="0 0 1024 1024" version="1.1" xmlns="http://www.w3.org/2000/svg" p-id="23219" xmlns:xlink="http://www.w3.org/1999/xlink" width="200" height="200"><path d="M170.666667 0h682.666666a170.666667 170.666667 0 0 1 170.666667 170.666667v682.666666a170.666667 170.666667 0 0 1-170.666667 170.666667H170.666667a170.666667 170.666667 0 0 1-170.666667-170.666667V170.666667a170.666667 170.666667 0 0 1 170.666667-170.666667z" fill="#F54A45" p-id="23220"></path><path d="M512 479.530667c77.098667 0 158.592 7.424 158.592 39.466666 0 46.293333-6.229333 81.194667 94.506667 91.477334 100.736 10.325333 87.68-56.618667 87.68-101.802667C852.778667 456.618667 720.341333 384 512 384s-340.778667 72.618667-340.778667 124.672c0 45.226667-13.056 112.128 87.68 101.802667 100.736-10.24 93.866667-44.586667 94.506667-91.477334 0-32.042667 81.493333-39.466667 158.592-39.466666z" fill="#FFFFFF" p-id="23221"></path></svg>