<?xml version="1.0" standalone="no"?><!DOCTYPE svg PUBLIC "-//W3C//DTD SVG 1.1//EN" "http://www.w3.org/Graphics/SVG/1.1/DTD/svg11.dtd"><svg t="1758277831921" class="icon" viewBox="0 0 1575 1024" version="1.1" xmlns="http://www.w3.org/2000/svg" p-id="100743" xmlns:xlink="http://www.w3.org/1999/xlink" width="307.6171875" height="200"><path d="M466.590519 80.731817c-128.855856 0-233.29526 101.367657-233.295259 226.364137 0 124.996481 104.439404 226.364138 233.295259 226.364138 128.855856 0 233.29526-101.367657 233.29526-226.364138 0-124.996481-104.439404-226.364138-233.29526-226.364137z m162.566312 482.579357c177.216183 64.19164 304.024207 228.569495 304.024207 422.877194a38.278696 38.278696 0 0 1-38.908797 37.727356 38.278696 38.278696 0 0 1-38.908798-37.727356c0-208.327468-174.065673-377.273563-388.772924-377.273563-214.786014 0-388.851687 168.946094-388.851687 377.273563A38.278696 38.278696 0 0 1 38.908798 1023.915724 38.278696 38.278696 0 0 1 0 986.188368c0-194.307699 126.808024-358.685554 304.024207-422.877194-88.84438-53.164855-148.46778-147.60139-148.46778-256.21522 0-166.661975 139.252538-301.81885 311.034092-301.81885 171.702791 0 311.034092 135.156876 311.034092 301.81885 0 108.692592-59.702163 203.050364-148.46778 256.21522zM1417.729464 628.132915v114.205985a39.381374 39.381374 0 0 1-78.762748 0v-114.205985h-117.120206A39.381374 39.381374 0 0 1 1181.44122 589.775457 39.381374 39.381374 0 0 1 1221.84651 551.339236H1338.966716V437.133251a39.381374 39.381374 0 0 1 78.762748 0V551.339236h117.120206a39.381374 39.381374 0 0 1 40.40529 38.357458 39.381374 39.381374 0 0 1-40.40529 38.436221H1417.729464z m-173.514334 358.055453a38.357458 38.357458 0 0 1-38.908798 37.727356 38.278696 38.278696 0 0 1-38.908797-37.727356c0-179.027726-128.855856-328.204371-301.267511-366.798118V617.499944a54.425059 54.425059 0 0 1-40.169002-51.5896c0-26.858097 20.320789-48.202802 46.470022-52.928566 81.834495-35.128186 139.410064-113.49712 139.410064-205.885824 0-124.996481-104.360641-226.364138-233.216497-226.364137v-0.472577A37.963645 37.963645 0 0 1 741.157459 43.00446c0-20.005738 16.146363-35.994576 36.467152-37.254779V5.277104l1.575255 0.157526 0.787627-0.157526c0.945153 0 1.575255 0.393814 2.520408 0.472577 169.418671 2.599171 306.150801 136.259554 306.150802 301.346273 0 108.692592-59.6234 203.050364-148.389018 256.21522 177.13742 64.19164 303.945444 228.569495 303.945445 422.877194z" fill="#858585" p-id="100744"></path></svg>