<?xml version="1.0" standalone="no"?><!DOCTYPE svg PUBLIC "-//W3C//DTD SVG 1.1//EN" "http://www.w3.org/Graphics/SVG/1.1/DTD/svg11.dtd"><svg t="1758177797721" class="icon" viewBox="0 0 1024 1024" version="1.1" xmlns="http://www.w3.org/2000/svg" p-id="38952" xmlns:xlink="http://www.w3.org/1999/xlink" width="200" height="200"><path d="M906.24 512a32 32 0 0 0-32-32H525.653333l79.36-79.36a30.933333 30.933333 0 0 0 9.386667-22.613333 31.573333 31.573333 0 0 0-9.386667-22.613334 32.213333 32.213333 0 0 0-45.226666 0L424.533333 490.666667a32.426667 32.426667 0 0 0 0 45.44l132.693334 132.48a32 32 0 0 0 45.226666-45.226667l-79.36-79.36H874.666667a32 32 0 0 0 31.573333-32z" fill="#ffffff" p-id="38953"></path><path d="M820.906667 117.973333h-618.666667a85.333333 85.333333 0 0 0-85.333333 85.333334v618.666666a85.333333 85.333333 0 0 0 85.333333 85.333334h618.666667a85.333333 85.333333 0 0 0 85.333333-85.333334v-186.666666h-64v186.026666a21.333333 21.333333 0 0 1-21.333333 21.333334h-618.666667a21.333333 21.333333 0 0 1-21.333333-21.333334v-618.666666a21.333333 21.333333 0 0 1 21.333333-21.333334h618.666667a21.333333 21.333333 0 0 1 21.333333 21.333334v185.813333h64V203.306667a85.333333 85.333333 0 0 0-85.333333-85.333334z" fill="#ffffff" p-id="38954"></path></svg>