<?xml version="1.0" standalone="no"?><!DOCTYPE svg PUBLIC "-//W3C//DTD SVG 1.1//EN" "http://www.w3.org/Graphics/SVG/1.1/DTD/svg11.dtd"><svg t="1758177767418" class="icon" viewBox="0 0 1024 1024" version="1.1" xmlns="http://www.w3.org/2000/svg" p-id="37868" xmlns:xlink="http://www.w3.org/1999/xlink" width="200" height="200"><path d="M864 90.88h-704c-44.16 0-80 35.84-80 80v160c0 26.24 21.76 48 48 48s48-21.76 48-48V186.88h672v672H176v-144c0-26.24-21.76-48-48-48s-48 21.76-48 48v160c0 44.16 35.84 80 80 80h704c44.16 0 80-35.84 80-80v-704c0-44.16-35.84-80-80-80z" p-id="37869" fill="#ffffff"></path><path d="M80 522.88c0 26.24 21.76 48 48 48h477.44l-14.08 13.44c-18.56 18.56-18.56 49.28 0 67.84 9.6 9.6 21.76 14.08 33.92 14.08s24.32-4.48 33.92-14.08l106.88-106.88c20.48-21.12 20.48-55.68-0.64-77.44l-106.88-106.24c-18.56-18.56-49.28-18.56-67.84 0s-18.56 49.28 0 67.84l44.16 44.16H128a49.92 49.92 0 0 0-48 49.28z" p-id="37870" fill="#ffffff"></path></svg>