<?xml version="1.0" standalone="no"?><!DOCTYPE svg PUBLIC "-//W3C//DTD SVG 1.1//EN" "http://www.w3.org/Graphics/SVG/1.1/DTD/svg11.dtd"><svg t="1758177821430" class="icon" viewBox="0 0 1220 1024" version="1.1" xmlns="http://www.w3.org/2000/svg" p-id="40000" xmlns:xlink="http://www.w3.org/1999/xlink" width="238.28125" height="200"><path d="M625.782154 122.092308c18.904615-23.315692 35.84-48.482462 56.989538-69.592616 62.739692-62.739692 144.699077-62.464 207.832616 0a33610.752 33610.752 0 0 1 258.048 258.12677c59.195077 59.864615 60.337231 143.517538 1.063384 203.421538a58099.633231 58099.633231 0 0 1-439.926154 439.886769c-58.486154 57.777231-142.375385 57.659077-201.255384-0.551384a48034.658462 48034.658462 0 0 1-435.593846-435.712c-60.022154-59.904-59.076923-142.020923 0.630154-202.988308A17810.510769 17810.510769 0 0 1 341.070769 47.143385c61.006769-59.746462 144.935385-58.328615 206.217846 2.363077 21.976615 21.819077 40.605538 46.985846 60.770462 70.616615l17.683692 2.008615z m-65.496616 54.272c-28.356923-24.024615-52.302769-43.874462-75.815384-64.196923-27.411692-23.788308-57.107692-24.772923-83.495385 1.220923h0.039385A28865.378462 28865.378462 0 0 0 140.603077 373.799385c-30.050462 30.483692-29.065846 55.532308 0.393846 87.670153 12.839385 13.942154 26.702769 26.939077 40.132923 40.369231 125.44 125.479385 250.88 251.037538 376.477539 376.398769 30.326154 30.286769 58.604308 35.209846 85.740307 15.596308 15.281231-11.067077 30.050462-22.803692 45.056-34.225231l1.181539-16.462769c-24.576-20.755692-50.333538-40.329846-73.491693-62.542769-27.569231-26.387692-28.987077-48.088615-8.388923-69.356308 20.361846-20.992 43.874462-20.086154 69.71077 6.222769 22.567385 22.961231 42.535385 48.482462 68.726153 78.651077l50.648616-55.965538c-28.356923-25.836308-55.886769-48.443077-80.344616-74.003692-24.891077-25.915077-19.692308-60.258462 12.36677-70.144 15.202462-4.726154 39.266462 2.363077 52.893538 12.681846 26.899692 20.322462 49.309538 46.592 71.089231 67.977846l93.144615-91.136-229.80923-229.888c-8.310154 7.758769-20.322462 19.180308-32.492308 30.404923-59.273846 54.823385-149.543385 62.148923-216.379077 17.683692-54.784-36.470154-59.234462-76.996923-12.839385-123.470769 32.059077-32.177231 64.787692-63.645538 105.865846-103.896615z m-31.507692 159.783384c42.456615 11.106462 73.334154 6.577231 99.328-20.519384 16.226462-16.935385 32.925538-33.358769 49.742769-49.624616 34.146462-33.240615 53.090462-33.201231 87.512616 1.063385 75.106462 74.712615 149.897846 149.819077 224.886154 224.689231 8.467692 8.428308 17.329231 16.423385 33.949538 32.098461 18.944-22.370462 35.446154-43.323077 53.563077-62.779077 34.816-37.376 35.209846-60.258462-1.536-97.20123-79.478154-79.832615-159.113846-159.507692-238.985846-238.985847-38.833231-38.675692-62.700308-38.675692-101.927385 0.236308a42908.475077 42908.475077 0 0 0-184.516923 184.595692c-6.695385 6.695385-12.169846 14.493538-22.055384 26.387693z" fill="#ffffff" p-id="40001"></path></svg>