<?xml version="1.0" standalone="no"?><!DOCTYPE svg PUBLIC "-//W3C//DTD SVG 1.1//EN" "http://www.w3.org/Graphics/SVG/1.1/DTD/svg11.dtd"><svg t="1758271073007" class="icon" viewBox="0 0 1024 1024" version="1.1" xmlns="http://www.w3.org/2000/svg" p-id="62344" xmlns:xlink="http://www.w3.org/1999/xlink" width="200" height="200"><path d="M319.27 641.9H190.79c-34.64 0-62.83 28.18-62.83 62.83v128.48c0 34.64 28.18 62.83 62.83 62.83h128.48c34.64 0 62.83-28.18 62.83-62.83V704.73c0-34.65-28.18-62.83-62.83-62.83z m22.83 191.31c0 12.59-10.24 22.83-22.83 22.83H190.79c-12.59 0-22.83-10.24-22.83-22.83V704.73c0-12.59 10.24-22.83 22.83-22.83h128.48c12.59 0 22.83 10.24 22.83 22.83v128.48z" fill="#9FA3AE" p-id="62345"></path><path d="M790.38 127.96H276.45c-58.26 0-105.66 47.4-105.66 105.66v256.97c0 11.05 8.95 20 20 20s20-8.95 20-20V233.62c0-36.2 29.45-65.66 65.66-65.66h513.94c36.2 0 65.66 29.45 65.66 65.66v513.94c0 36.2-29.45 65.66-65.66 65.66H533.41c-11.05 0-20 8.95-20 20s8.95 20 20 20h256.97c58.26 0 105.66-47.4 105.66-105.66V233.62c0-58.26-47.4-105.66-105.66-105.66z" fill="#9FA3AE" p-id="62346"></path><path d="M684.73 490.59c0 11.05 8.95 20 20 20s20-8.95 20-20V319.27v-0.09c0-0.63-0.03-1.26-0.1-1.88-0.03-0.31-0.09-0.61-0.13-0.91-0.05-0.34-0.09-0.69-0.16-1.03-0.07-0.34-0.16-0.67-0.25-1.01-0.07-0.3-0.14-0.59-0.23-0.89-0.1-0.33-0.22-0.64-0.34-0.96-0.11-0.3-0.2-0.59-0.32-0.89-0.12-0.3-0.27-0.58-0.41-0.87-0.14-0.3-0.28-0.61-0.43-0.9-0.15-0.28-0.32-0.54-0.48-0.81-0.17-0.29-0.34-0.59-0.53-0.87-0.2-0.29-0.42-0.57-0.63-0.85-0.18-0.24-0.35-0.49-0.54-0.72-0.4-0.49-0.83-0.96-1.28-1.41l-0.05-0.05c-0.01-0.01-0.03-0.02-0.04-0.04-0.45-0.45-0.93-0.88-1.42-1.29-0.24-0.19-0.48-0.36-0.73-0.54-0.28-0.21-0.55-0.43-0.84-0.62-0.29-0.19-0.59-0.36-0.88-0.54-0.27-0.16-0.52-0.32-0.8-0.47-0.3-0.16-0.61-0.3-0.91-0.44-0.29-0.14-0.57-0.28-0.86-0.4-0.3-0.12-0.6-0.22-0.9-0.33-0.32-0.11-0.63-0.23-0.95-0.33-0.3-0.09-0.61-0.16-0.91-0.23-0.33-0.08-0.65-0.18-0.99-0.24-0.35-0.07-0.7-0.11-1.06-0.16-0.29-0.04-0.58-0.1-0.88-0.13-0.66-0.06-1.31-0.1-1.97-0.1h-171.3c-11.05 0-20 8.95-20 20s8.95 20 20 20h123.03l-180 180c-7.81 7.81-7.81 20.47 0 28.29 3.91 3.91 9.02 5.86 14.14 5.86s10.24-1.95 14.14-5.86l180-180v123.03z" fill="#9FA3AE" p-id="62347"></path></svg>