<?xml version="1.0" standalone="no"?><!DOCTYPE svg PUBLIC "-//W3C//DTD SVG 1.1//EN" "http://www.w3.org/Graphics/SVG/1.1/DTD/svg11.dtd"><svg t="1758272546365" class="icon" viewBox="0 0 1024 1024" version="1.1" xmlns="http://www.w3.org/2000/svg" p-id="77236" xmlns:xlink="http://www.w3.org/1999/xlink" width="200" height="200"><path d="M790.016 959.488H233.984c-93.696 0-169.984-76.288-169.984-169.984V233.984c0-93.696 76.288-169.984 169.984-169.984h555.52c93.696 0 169.984 76.288 169.984 169.984v555.52c0 94.208-75.776 169.984-169.472 169.984zM233.984 156.672c-42.496 0-77.312 34.816-77.312 77.312v555.52c0 42.496 34.816 77.312 77.312 77.312h555.52c42.496 0 77.312-34.816 77.312-77.312V233.984c0-42.496-34.816-77.312-77.312-77.312H233.984z" p-id="77237" fill="#9FA3AE"></path><path d="M487.936 601.6l-185.344 185.344-65.536-65.536 185.344-185.344 65.536 65.536z" p-id="77238" fill="#9FA3AE"></path><path d="M439.296 800.768H223.232v-216.064M784.896 304.64l-185.344 185.344-65.536-65.536 185.344-185.344 65.536 65.536z" p-id="77239" fill="#9FA3AE"></path><path d="M582.144 225.792h216.064v216.064" p-id="77240" fill="#9FA3AE"></path></svg>