<?xml version="1.0" standalone="no"?><!DOCTYPE svg PUBLIC "-//W3C//DTD SVG 1.1//EN" "http://www.w3.org/Graphics/SVG/1.1/DTD/svg11.dtd"><svg t="1758115816606" class="icon" viewBox="0 0 1024 1024" version="1.1" xmlns="http://www.w3.org/2000/svg" p-id="19707" xmlns:xlink="http://www.w3.org/1999/xlink" width="200" height="200"><path d="M935.258 830.194H461.637a23.255 23.255 0 1 1 0-46.51h473.621a36.432 36.432 0 0 0 37.208-37.207V281.382a36.432 36.432 0 0 0-37.208-39.533H461.637a23.255 23.255 0 1 1 0-46.51h473.621a83.717 83.717 0 0 1 83.718 83.718v465.095a83.717 83.717 0 0 1-83.718 86.042z" fill="#676D81" p-id="19708"></path><path d="M212.811 259.678a129.451 129.451 0 1 1 129.452-129.451 130.227 130.227 0 0 1-129.452 129.45z m0-213.169a82.942 82.942 0 1 0 82.942 82.942 83.717 83.717 0 0 0-82.942-82.942z m37.983 977.475h-77.516a77.516 77.516 0 0 1-77.516-77.516L82.585 721.672a97.67 97.67 0 0 1-67.44-87.593L5.07 430.213a116.274 116.274 0 0 1 116.274-120.925h409.283a77.516 77.516 0 0 1 0 155.032l-173.635 31.006-27.131 453.467a77.516 77.516 0 0 1-79.066 75.19zM121.343 354.247a69.764 69.764 0 0 0-51.16 21.705 70.54 70.54 0 0 0-19.38 51.16L61.655 630.98a49.61 49.61 0 0 0 44.96 47.284h20.154l16.278 265.88a32.557 32.557 0 0 0 31.781 30.23h77.516a32.557 32.557 0 0 0 31.782-30.23l31.006-487.575 218.595-37.208a32.557 32.557 0 0 0 28.68-32.556 31.781 31.781 0 0 0-31.781-31.782H121.343z" fill="#676D81" p-id="19709"></path><path d="M583.337 634.08a20.154 20.154 0 0 0 13.953 5.425 18.604 18.604 0 0 0 14.728-10.852l65.888-131.777 58.137 59.687a18.604 18.604 0 0 0 15.503 5.427 20.154 20.154 0 0 0 14.728-8.527l117.049-196.115a19.844 19.844 0 0 0-34.107-20.154l-100.77 173.635-60.463-60.462a19.379 19.379 0 0 0-16.278-5.426 20.154 20.154 0 0 0-14.728 10.852L591.088 587.57l-20.154-20.154a19.379 19.379 0 0 0-23.255 27.13z" fill="#676D81" p-id="19710"></path></svg>