<?xml version="1.0" standalone="no"?><!DOCTYPE svg PUBLIC "-//W3C//DTD SVG 1.1//EN" "http://www.w3.org/Graphics/SVG/1.1/DTD/svg11.dtd"><svg t="1758277919074" class="icon" viewBox="0 0 1024 1024" version="1.1" xmlns="http://www.w3.org/2000/svg" p-id="106865" xmlns:xlink="http://www.w3.org/1999/xlink" width="200" height="200"><path d="M625.706667 128h-3.626667c-1.194667 0-2.432 0.213333-3.626667 0.213333-1.194667 0-2.432 0.213333-3.626666 0.213334-1.194667 0-3.413333 0.213333-3.413334 0.213333l-3.626666 0.213333-3.626667 0.426667-3.626667 0.64-3.413333 0.64-3.626667 0.64-3.413333 0.64-3.626667 0.853333-3.413333 0.853334-3.626667 1.066666-3.413333 1.066667c-1.152 0.362667-2.282667 0.682667-3.413333 1.066667-1.130667 0.384-2.282667 0.64-3.413334 1.066666-1.130667 0.426667-2.090667 0.853333-3.2 1.28-1.109333 0.426667-2.304 1.045333-3.413333 1.493334-1.109333 0.448-2.304 0.789333-3.413333 1.28-1.109333 0.490667-2.112 0.981333-3.2 1.493333-1.088 0.512-2.133333 0.96-3.2 1.493333-1.066667 0.533333-2.133333 1.152-3.2 1.706667l-3.2 1.706667-3.2 1.706666-2.986667 1.92-3.2 1.92-2.986667 1.92-2.986666 1.92-2.986667 2.133334-2.773333 2.133333-2.773334 2.346667-2.986666 2.133333 6.186666 3.2 5.973334 3.2s3.84 2.218667 5.76 3.413333c1.92 1.194667 3.669333 2.368 5.546666 3.626667 1.877333 1.258667 3.712 2.517333 5.546667 3.84 1.834667 1.322667 3.776 2.666667 5.546667 4.053333 1.770667 1.386667 3.392 2.816 5.12 4.266667 1.728 1.450667 3.434667 2.986667 5.12 4.48 1.685333 1.493333 3.498667 2.922667 5.12 4.48 1.621333 1.557333 3.114667 3.285333 4.693333 4.906667 1.578667 1.621333 3.2 3.242667 4.693333 4.906666 1.493333 1.664 3.029333 3.413333 4.48 5.12 1.450667 1.706667 2.88 3.349333 4.266667 5.12 1.386667 1.770667 2.730667 3.733333 4.053333 5.546667 1.322667 1.813333 2.56 3.477333 3.84 5.333333s2.432 3.84 3.626667 5.76c1.194667 1.92 2.496 3.818667 3.626667 5.76 1.130667 1.941333 2.133333 3.989333 3.2 5.973334 1.066667 1.984 2.005333 3.946667 2.986666 5.973333 1.002667 2.026667 2.069333 4.138667 2.986667 6.186667 0.917333 2.048 1.706667 4.096 2.56 6.186666 0.853333 2.090667 1.792 4.053333 2.56 6.186667 0.768 2.133333 1.429333 4.266667 2.133333 6.4 0.704 2.133333 1.28 4.437333 1.92 6.613333 0.64 2.176 1.365333 4.224 1.92 6.4a188.650667 188.650667 0 0 1 2.773334 13.226667 192.128 192.128 0 0 1 1.92 13.44 61.866667 61.866667 0 0 1 0.426666 6.613333c0 2.24 0.426667 4.565333 0.426667 6.826667 0 2.24 0.213333 4.565333 0.213333 6.826667v3.84c0 1.28-0.213333 2.56-0.213333 3.84s-0.213333 2.56-0.213333 3.84-0.213333 2.56-0.213334 3.84-0.426667 2.773333-0.426666 4.053333-0.426667 2.56-0.426667 3.84-0.426667 2.56-0.426667 3.84-0.64 2.56-0.64 3.84-0.405333 2.56-0.64 3.84c-0.213333 1.28-0.597333 2.346667-0.853333 3.626667-0.256 1.28-0.362667 2.56-0.64 3.84-0.277333 1.28-0.746667 2.581333-1.066667 3.84-0.298667 1.258667-0.512 2.581333-0.853333 3.84s-0.704 2.389333-1.066667 3.626666c-0.362667 1.237333-0.682667 2.602667-1.066666 3.84-0.384 1.237333-0.853333 2.389333-1.28 3.626667l-1.28 3.626667c-0.426667 1.216-0.810667 2.410667-1.28 3.626666-0.469333 1.216-1.002667 2.432-1.493334 3.626667a199.04 199.04 0 0 1-1.493333 3.626667c-0.512 1.194667-0.96 2.453333-1.493333 3.626666-0.533333 1.173333-1.152 2.24-1.706667 3.413334-0.554667 1.173333-1.130667 2.261333-1.706667 3.413333-0.576 1.152-1.109333 2.474667-1.706666 3.626667-0.597333 1.152-1.28 2.282667-1.92 3.413333-0.64 1.130667-1.28 2.090667-1.92 3.2-0.64 1.109333-1.237333 2.304-1.92 3.413333-0.661333 1.109333-1.237333 2.325333-1.92 3.413334-0.682667 1.088-1.429333 2.133333-2.133334 3.2-0.725333 1.066667-1.6 2.133333-2.346666 3.2-0.725333 1.066667-1.365333 2.133333-2.133334 3.2-0.768 1.066667-1.578667 1.962667-2.346666 2.986666a165.781333 165.781333 0 0 0 17.28 2.986667c2.901333 0.341333 5.845333 0.853333 8.746666 0.853333 2.901333 0 5.632 0.213333 8.533334 0.213334h8.746666c2.901333 0 5.845333-0.362667 8.746667-0.64a169.536 169.536 0 0 0 25.813333-4.48c2.816-0.725333 5.76-1.493333 8.533334-2.346667 2.773333-0.853333 5.376-1.962667 8.106666-2.986667a166.485333 166.485333 0 0 0 16-6.826666c2.602667-1.28 5.141333-2.624 7.68-4.053334s5.226667-2.922667 7.68-4.48c2.453333-1.557333 4.672-3.2 7.04-4.906666 2.368-1.706667 4.757333-3.52 7.04-5.333334 2.282667-1.813333 4.650667-3.626667 6.826667-5.546666 2.176-1.92 4.117333-3.925333 6.186667-5.973334a171.648 171.648 0 0 0 17.28-19.84c1.728-2.346667 3.306667-4.821333 4.906666-7.253333 1.6-2.432 3.221333-4.736 4.693334-7.253333 1.472-2.517333 2.922667-5.098667 4.266666-7.68s2.432-5.248 3.626667-7.893334c1.194667-2.645333 2.346667-5.397333 3.413333-8.106666a163.904 163.904 0 0 0 7.68-24.96c0.618667-2.837333 1.024-5.653333 1.493334-8.533334 0.469333-2.88 0.96-5.845333 1.28-8.746666 0.32-2.901333 0.64-5.845333 0.64-8.746667 0-2.901333 0.426667-5.845333 0.426666-8.746667 0-2.901333-0.213333-5.845333-0.213333-8.746666 0-2.901333-0.341333-5.632-0.64-8.533334-0.298667-2.901333-0.853333-5.866667-1.28-8.746666a162.496 162.496 0 0 0-1.493333-8.533334c-0.597333-2.858667-1.173333-5.717333-1.92-8.533333-0.746667-2.816-1.664-5.546667-2.56-8.32a169.344 169.344 0 0 0-2.986667-8.32c-1.045333-2.730667-2.026667-5.44-3.2-8.106667-1.173333-2.666667-2.517333-5.290667-3.84-7.893333s-2.602667-5.162667-4.053333-7.68-3.114667-5.013333-4.693334-7.466667a167.338667 167.338667 0 0 0-4.906666-7.253333c-1.706667-2.346667-3.498667-4.565333-5.333334-6.826667-1.834667-2.261333-3.605333-4.458667-5.546666-6.613333a166.997333 166.997333 0 0 0-5.973334-6.4 165.888 165.888 0 0 0-6.4-5.973333c-2.176-1.941333-4.352-3.925333-6.613333-5.76a169.493333 169.493333 0 0 0-7.04-5.333334 159.616 159.616 0 0 0-7.04-4.906666 164.309333 164.309333 0 0 0-7.466667-4.48c-2.517333-1.450667-5.077333-2.944-7.68-4.266667s-5.226667-2.453333-7.893333-3.626667a168.682667 168.682667 0 0 0-8.106667-3.413333c-2.709333-1.045333-5.546667-1.877333-8.32-2.773333-2.773333-0.896-5.504-1.813333-8.32-2.56-2.816-0.746667-5.674667-1.322667-8.533333-1.92-2.858667-0.597333-5.653333-1.28-8.533333-1.706667a169.066667 169.066667 0 0 0-8.746667-1.066667c-2.901333-0.298667-5.845333-0.64-8.746667-0.64-2.901333 0-5.824-0.213333-8.746666-0.213333z m-18.986667 385.066667c-17.493333 0-71.082667 5.290667-89.173333 13.866666 112.853333 23.018667 235.52 110.549333 235.52 250.88 0 21.909333-8.853333 41.450667-24.533334 58.24 94.272-15.338667 167.466667-49.834667 167.466667-103.253333 0-150.250667-129.578667-219.733333-289.28-219.733333z" fill="#858585" opacity=".3" p-id="106866"></path><path d="M251.52 349.653333c0-2.709333-0.213333-5.610667-0.213333-8.32h-0.213334c0-2.709333 0.213333-5.397333 0.213334-8.106666s0.384-5.397333 0.64-8.106667 0.661333-5.418667 1.066666-8.106667c0.405333-2.688 0.746667-5.226667 1.28-7.893333 0.533333-2.666667 1.28-5.482667 1.92-8.106667a173.610667 173.610667 0 0 1 4.693334-15.573333c0.917333-2.56 1.941333-4.949333 2.986666-7.466667 1.045333-2.517333 2.048-5.013333 3.2-7.466666 1.152-2.453333 2.346667-4.864 3.626667-7.253334a165.632 165.632 0 0 1 8.533333-14.08c1.493333-2.261333 3.072-4.437333 4.693334-6.613333 1.621333-2.176 3.2-4.309333 4.906666-6.4 1.706667-2.090667 3.52-4.181333 5.333334-6.186667 1.834667-2.005333 3.626667-4.053333 5.546666-5.973333 1.92-1.92 3.968-3.733333 5.973334-5.546667 2.005333-1.813333 4.096-3.626667 6.186666-5.333333 2.090667-1.706667 4.224-3.285333 6.4-4.906667 2.176-1.621333 4.352-3.2 6.613334-4.693333 2.261333-1.493333 4.48-3.093333 6.826666-4.48a172.074667 172.074667 0 0 1 14.506667-7.68c2.453333-1.152 4.949333-2.154667 7.466667-3.2 2.517333-1.045333 4.906667-2.069333 7.466666-2.986667a172.544 172.544 0 0 1 15.573334-4.693333c2.624-0.64 5.44-1.386667 8.106666-1.92 2.666667-0.533333 5.205333-0.874667 7.893334-1.28 2.688-0.405333 5.397333-0.810667 8.106666-1.066667 2.709333-0.256 5.397333-0.64 8.106667-0.64h16.426667c2.709333 0 5.397333 0.384 8.106666 0.64s5.418667 0.661333 8.106667 1.066667c2.688 0.405333 5.226667 0.746667 7.893333 1.28 2.666667 0.533333 5.269333 1.28 7.893334 1.92s5.290667 1.344 7.893333 2.133333a164.224 164.224 0 0 1 15.36 5.546667c2.517333 1.045333 5.013333 2.048 7.466667 3.2 2.453333 1.152 4.864 2.346667 7.253333 3.626667a164.48 164.48 0 0 1 14.08 8.533333c2.261333 1.493333 4.437333 3.072 6.613333 4.693333 2.176 1.621333 4.309333 3.2 6.4 4.906667a165.162667 165.162667 0 0 1 23.04 23.04c1.706667 2.090667 3.285333 4.224 4.906667 6.4a161.024 161.024 0 0 1 9.173333 13.653333c1.408 2.346667 2.56 4.650667 3.84 7.04 1.28 2.389333 2.688 4.8 3.84 7.253334 1.152 2.453333 2.154667 4.949333 3.2 7.466666 1.045333 2.517333 2.069333 4.906667 2.986667 7.466667a173.610667 173.610667 0 0 1 4.693333 15.573333c0.64 2.624 1.173333 5.44 1.706667 8.106667s1.088 5.205333 1.493333 7.893333c0.405333 2.688 0.576 5.397333 0.853334 8.106667 0.256 2.709333 0.64 5.397333 0.64 8.106667s0.213333 5.397333 0.213333 8.106666-0.213333 5.610667-0.213333 8.32-0.384 5.397333-0.64 8.106667-0.448 5.418667-0.853334 8.106667-0.96 5.226667-1.493333 7.893333a163.413333 163.413333 0 0 1-3.84 15.786667 165.248 165.248 0 0 1-5.546667 15.36c-1.045333 2.517333-2.048 5.013333-3.2 7.466666-1.152 2.453333-2.56 4.864-3.84 7.253334-1.28 2.389333-2.453333 4.693333-3.84 7.04a174.293333 174.293333 0 0 1-9.173333 13.653333c-1.621333 2.176-3.2 4.309333-4.906667 6.4-1.706667 2.090667-3.52 4.181333-5.333333 6.186667-1.813333 2.005333-3.84 3.84-5.76 5.76-1.92 1.92-3.754667 3.925333-5.76 5.76-2.005333 1.813333-4.096 3.626667-6.186667 5.333333-2.090667 1.706667-4.224 3.285333-6.4 4.906667a163.114667 163.114667 0 0 1-13.653333 9.173333c-2.346667 1.386667-4.650667 2.56-7.04 3.84-2.389333 1.28-4.8 2.666667-7.253333 3.84-2.453333 1.152-4.949333 2.154667-7.466667 3.2a170.069333 170.069333 0 0 1-15.36 5.546667 167.552 167.552 0 0 1-15.786667 3.84c-2.666667 0.533333-5.205333 1.088-7.893333 1.493333-2.688 0.405333-5.397333 0.576-8.106667 0.853333-2.709333 0.256-5.397333 0.64-8.106666 0.64s-5.610667 0.213333-8.32 0.213334-5.397333-0.213333-8.106667-0.213334-5.397333-0.384-8.106667-0.64-5.418667-0.448-8.106666-0.853333-5.226667-0.96-7.893334-1.493333c-2.666667-0.533333-5.461333-1.066667-8.106666-1.706667a170.986667 170.986667 0 0 1-15.573334-4.693333c-2.56-0.917333-4.949333-1.941333-7.466666-2.986667-2.517333-1.045333-5.013333-2.048-7.466667-3.2-2.453333-1.173333-4.864-2.56-7.253333-3.84-2.389333-1.28-4.693333-2.453333-7.04-3.84a172.8 172.8 0 0 1-13.653334-9.173333c-2.176-1.621333-4.309333-3.2-6.4-4.906667a167.168 167.168 0 0 1-6.186666-5.333333 172.885333 172.885333 0 0 1-5.973334-5.76 160.554667 160.554667 0 0 1-10.88-11.946667c-1.706667-2.090667-3.285333-4.224-4.906666-6.4a164.629333 164.629333 0 0 1-9.173334-13.653333c-1.386667-2.346667-2.56-4.650667-3.84-7.04-1.28-2.389333-2.688-4.8-3.84-7.253334-1.152-2.453333-2.154667-4.949333-3.2-7.466666a171.072 171.072 0 0 1-5.546666-15.36 168.256 168.256 0 0 1-3.84-15.786667c-0.533333-2.666667-1.088-5.205333-1.493334-7.893333a167.829333 167.829333 0 0 1-1.066666-8.106667 82.410667 82.410667 0 0 1-0.426667-8.106667zM128 787.2c0 144.917333 578.346667 144.917333 578.346667 0 0-145.024-129.578667-232.32-289.28-232.32C257.408 554.88 128 642.176 128 787.2z m290.56-159.978667l-1.173333-0.021333-2.88 0.170667a24.341333 24.341333 0 0 0-21.461334 24.170666v48.661334h-48.704c-13.418667 0-24.341333 10.88-24.341333 24.341333l0.170667 2.88 0.149333 1.066667a26.197333 26.197333 0 0 0 1.493333 5.333333 23.765333 23.765333 0 0 0 5.546667 8.170667 22.442667 22.442667 0 0 0 4.373333 3.370666 25.258667 25.258667 0 0 0 7.125334 2.901334 23.146667 23.146667 0 0 0 5.482666 0.618666h48.704v48.682667a24.874667 24.874667 0 0 0 1.856 9.301333q0.213333 0.554667 0.490667 1.088a25.002667 25.002667 0 0 0 5.653333 7.637334 24.149333 24.149333 0 0 0 13.952 6.186666 24.810667 24.810667 0 0 0 2.389334 0.106667l2.837333-0.170667a24.341333 24.341333 0 0 0 21.504-24.149333v-48.682667h48.661333a24.874667 24.874667 0 0 0 11.477334-2.88 24.96 24.96 0 0 0 8.085333-6.954666 23.68 23.68 0 0 0 4.053333-8.597334 26.410667 26.410667 0 0 0 0.725334-5.909333l-0.213334-2.858667a24.32 24.32 0 0 0-24.106666-21.482666h-48.682667v-48.661334a24.810667 24.810667 0 0 0-2.88-11.477333 24.96 24.96 0 0 0-6.976-8.064 25.962667 25.962667 0 0 0-5.184-2.944 25.002667 25.002667 0 0 0-8.106667-1.834667z" fill="#858585" p-id="106867"></path></svg>