<?xml version="1.0" standalone="no"?><!DOCTYPE svg PUBLIC "-//W3C//DTD SVG 1.1//EN" "http://www.w3.org/Graphics/SVG/1.1/DTD/svg11.dtd"><svg t="1758272656178" class="icon" viewBox="0 0 1024 1024" version="1.1" xmlns="http://www.w3.org/2000/svg" p-id="80308" xmlns:xlink="http://www.w3.org/1999/xlink" width="200" height="200"><path d="M777.784889 445.952a46.648889 46.648889 0 0 1 45.909333 51.882667c-23.153778 159.288889-147.797333 284.672-304.526222 305.095111l-0.056889 51.484444h37.319111a46.648889 46.648889 0 0 1 45.909334 41.472l0.341333 5.916445c0 24.177778-17.635556 44.088889-40.391111 46.990222l-5.859556 0.398222H391.168a46.819556 46.819556 0 0 1-46.250667-47.388444c0-24.120889 17.635556-43.975111 40.391111-46.990223l5.859556-0.398222H426.666667v-51.768889c-151.324444-20.593778-272.327111-139.036444-300.771556-291.157333l-2.275555-13.312h0.227555l-0.284444-4.551111c0-24.064 17.635556-43.975111 40.334222-46.876445l5.802667-0.341333c23.495111 0 42.894222 18.033778 45.738666 41.301333l0.113778 2.332445 2.389333 11.832889c25.6 115.996444 124.017778 203.491556 243.484445 209.180444l12.344889 0.284445c124.871111 0 229.319111-89.372444 255.658666-209.180445l2.389334-12.060444a46.648889 46.648889 0 0 1 45.966222-44.145778zM473.031111 0c124.245333 0 225.28 82.432 227.896889 184.945778-0.113778 1.422222 0 2.844444 0 4.209778v292.977777l-0.113778 1.479111C696.32 584.817778 596.024889 665.6 473.031111 665.6c-123.164444 0-223.402667-80.839111-227.783111-181.987556l-0.113778-3.128888V188.871111C245.134222 84.593778 347.136 0 473.031111 0z" fill="#00AF84" p-id="80309"></path></svg>