<?xml version="1.0" standalone="no"?><!DOCTYPE svg PUBLIC "-//W3C//DTD SVG 1.1//EN" "http://www.w3.org/Graphics/SVG/1.1/DTD/svg11.dtd"><svg t="1758177873529" class="icon" viewBox="0 0 1024 1024" version="1.1" xmlns="http://www.w3.org/2000/svg" p-id="41242" xmlns:xlink="http://www.w3.org/1999/xlink" width="200" height="200"><path d="M789.94743 2.789916a33.424672 33.424672 0 0 0-13.379817-2.78539H332.795402a33.026759 33.026759 0 0 0-31.435109 21.338072 31.88276 31.88276 0 0 0-1.591651 5.769735L214.814267 490.083835c0 1.09426-0.348174 2.238259-0.447652 3.33252s0 2.238259 0 3.332519v3.233041a33.026759 33.026759 0 0 0 26.560677 28.798937 32.230934 32.230934 0 0 0 6.913734 0.596869h47.550576L217.152004 1005.231649a16.612858 16.612858 0 0 0 17.955814 18.7019 18.7019 18.7019 0 0 0 3.680693-0.795826 16.712336 16.712336 0 0 0 6.416343-4.028867l42.278232-45.511272 448.447686-483.215314a16.51338 16.51338 0 0 0-11.539471-27.804155H627.051891l179.956048-416.31623a33.026759 33.026759 0 0 0-17.060509-43.471969z" p-id="41243" fill="#ffffff"></path></svg>