<?xml version="1.0" standalone="no"?><!DOCTYPE svg PUBLIC "-//W3C//DTD SVG 1.1//EN" "http://www.w3.org/Graphics/SVG/1.1/DTD/svg11.dtd"><svg t="1758273776695" class="icon" viewBox="0 0 1155 1024" version="1.1" xmlns="http://www.w3.org/2000/svg" p-id="82981" xmlns:xlink="http://www.w3.org/1999/xlink" width="225.5859375" height="200"><path d="M1122.722102 22.080793a88.689944 88.689944 0 0 0-70.674799-21.248632l-23.096339 3.464451a42.266301 42.266301 0 0 0-40.418594 48.27135c3.695414 26.098864 27.715607 35.106436 53.814471 31.411021h39.032814v861.262499l-39.032814-4.850231c-26.098864-3.695414-51.04291 4.619268-54.738325 30.949095a42.959191 42.959191 0 0 0 41.342448 48.271349l23.096339 3.464451a105.781235 105.781235 0 0 0 12.24106 0 88.689944 88.689944 0 0 0 58.433739-23.096339A94.002102 94.002102 0 0 0 1155.056978 928.612118V93.448482A94.002102 94.002102 0 0 0 1122.722102 22.080793zM821.545835 10.763587L85.003569 98.76064A97.928479 97.928479 0 0 0 0.00904 197.151047v629.606214a97.928479 97.928479 0 0 0 84.994529 98.390406l736.542266 87.997053a85.687419 85.687419 0 0 0 10.85528 0 95.387882 95.387882 0 0 0 62.822043-23.096339 99.776187 99.776187 0 0 0 33.258729-75.063103V109.153993a99.776187 99.776187 0 0 0-33.258729-75.294066 94.002102 94.002102 0 0 0-73.677323-23.09634z m33.027766 497.957079v421.739159a5.774085 5.774085 0 0 1 0 3.464451l-391.482954-44.114008-390.559101-43.883045a4.850231 4.850231 0 0 1-1.154817-3.695415V175.209524a4.850231 4.850231 0 0 1 1.154817-2.771561l781.118201-87.76609a4.388305 4.388305 0 0 1 0 3.233488z" fill="#858585" p-id="82982"></path><path d="M582.267758 506.872959l-161.674376-99.31426a47.578459 47.578459 0 0 0-72.753469 40.649558v198.859483a46.192679 46.192679 0 0 0 24.48212 41.573411 46.192679 46.192679 0 0 0 23.096339 6.236011 47.347496 47.347496 0 0 0 24.944047-7.159865l161.674376-99.31426a48.27135 48.27135 0 0 0 23.09634-40.88052 48.96424 48.96424 0 0 0-6.236012-23.09634 46.192679 46.192679 0 0 0-16.629365-17.553218z" fill="#858585" p-id="82983"></path></svg>