<?xml version="1.0" standalone="no"?><!DOCTYPE svg PUBLIC "-//W3C//DTD SVG 1.1//EN" "http://www.w3.org/Graphics/SVG/1.1/DTD/svg11.dtd"><svg t="1758115574512" class="icon" viewBox="0 0 1024 1024" version="1.1" xmlns="http://www.w3.org/2000/svg" p-id="9547" xmlns:xlink="http://www.w3.org/1999/xlink" width="200" height="200"><path d="M682.666667 512a170.666667 170.666667 0 1 0-341.333334 0 170.666667 170.666667 0 0 0 341.333334 0z m-58.660572 0a112.006095 112.006095 0 1 1-224.01219 0 112.006095 112.006095 0 0 1 224.01219 0z" p-id="9548" fill="#9FA3AE"></path><path d="M929.426286 496.006095c5.729524 9.898667 5.729524 22.089143 0 31.98781L734.598095 865.52381a32.01219 32.01219 0 0 1-27.721143 16.018285H317.147429c-11.459048 0-21.991619-6.095238-27.721143-16.018285L94.598095 527.993905a31.98781 31.98781 0 0 1 0-31.98781L289.426286 158.47619a32.01219 32.01219 0 0 1 27.721143-15.993904h389.705142c11.459048 0 21.991619 6.095238 27.721143 15.993904l194.852572 337.505524zM691.46819 201.142857H332.53181L153.112381 512l179.443809 310.808381h358.936381L870.887619 512l-179.443809-310.857143z" p-id="9549" fill="#9FA3AE"></path></svg>